<svg width="37" height="37" viewBox="0 0 37 37" fill="none" xmlns="http://www.w3.org/2000/svg">
<path d="M18.5308 4.48625C13.4279 4.48625 9.28085 8.63334 9.28085 13.7363V18.1917C9.28085 19.1321 8.88001 20.5658 8.4021 21.3675L6.62918 24.3121C5.5346 26.1313 6.29001 28.1508 8.29418 28.8292C14.9388 31.0492 22.1075 31.0492 28.7521 28.8292C30.6175 28.2125 31.4346 26.0079 30.4171 24.3121L28.6442 21.3675C28.1817 20.5658 27.7808 19.1321 27.7808 18.1917V13.7363C27.7808 8.64875 23.6183 4.48625 18.5308 4.48625Z" stroke="#030303" stroke-width="1.5" stroke-miterlimit="10" stroke-linecap="round"/>
<path d="M21.3829 4.93334C20.905 4.79459 20.4117 4.68667 19.9029 4.625C18.4229 4.44 17.0046 4.54792 15.6787 4.93334C16.1258 3.7925 17.2358 2.99084 18.5308 2.99084C19.8258 2.99084 20.9358 3.7925 21.3829 4.93334Z" stroke="#030303" stroke-width="1.5" stroke-miterlimit="10" stroke-linecap="round" stroke-linejoin="round"/>
<path d="M23.1558 29.3842C23.1558 31.9279 21.0746 34.0092 18.5308 34.0092C17.2667 34.0092 16.095 33.485 15.2625 32.6525C14.43 31.82 13.9058 30.6483 13.9058 29.3842" stroke="#030303" stroke-width="1.5" stroke-miterlimit="10"/>
</svg>
